<?xml version="1.0" standalone="no"?>
<!DOCTYPE svg PUBLIC "-//W3C//DTD SVG 20010904//EN"
 "http://www.w3.org/TR/2001/REC-SVG-20010904/DTD/svg10.dtd">
<svg version="1.0" xmlns="http://www.w3.org/2000/svg"
 width="70.000000pt" height="70.000000pt" viewBox="0 0 70.000000 70.000000"
 preserveAspectRatio="xMidYMid meet">
<metadata>
Created by potrace 1.14, written by Peter Selinger 2001-2017
</metadata>
<g transform="translate(0.000000,70.000000) scale(0.100000,-0.100000)"
fill="#000000" stroke="none">
<path d="M244 685 c-75 -23 -168 -98 -203 -163 -42 -79 -51 -200 -20 -284 19
-51 60 -114 91 -136 9 -7 23 -18 30 -25 78 -72 249 -87 363 -31 66 33 138 107
167 171 26 60 34 159 18 220 -29 110 -123 210 -230 246 -54 18 -159 19 -216 2z
m96 -52 c0 -23 5 -43 10 -43 6 0 10 17 10 39 0 30 4 40 20 44 11 3 20 1 20 -3
0 -4 9 -6 19 -3 27 7 118 -43 163 -90 34 -34 67 -84 75 -112 16 -61 21 -90 17
-97 -3 -4 -23 -8 -45 -8 -21 0 -39 -4 -39 -10 0 -5 20 -10 44 -10 41 0 44 -2
40 -22 -2 -13 -7 -36 -10 -53 -17 -96 -146 -210 -257 -228 -31 -5 -42 6 -42
42 0 13 -6 26 -12 28 -9 3 -13 -8 -13 -36 0 -36 -2 -39 -22 -36 -20 4 -74 16
-88 20 -34 10 -68 33 -112 78 -42 42 -59 68 -75 117 -11 35 -19 70 -16 77 3 8
21 13 44 13 21 0 39 5 39 10 0 6 -20 10 -44 10 l-44 0 5 38 c8 63 45 135 93
180 52 50 87 71 150 87 68 17 70 17 70 -32z"/>
<path d="M120 502 c5 -9 21 -30 35 -47 19 -23 25 -26 25 -12 0 9 2 17 5 17 9
0 145 -93 145 -99 -1 -17 -79 -91 -92 -86 -10 4 -17 -7 -25 -37 -6 -24 -10
-44 -8 -46 2 -2 22 6 45 18 33 17 39 24 30 35 -7 8 -7 15 -1 19 5 3 28 28 50
55 l41 49 -86 57 c-55 37 -83 62 -80 71 4 10 -3 14 -22 15 -15 0 -37 2 -50 5
-19 3 -21 1 -12 -14z"/>
</g>
</svg>
